# Blender 4.2.2 LTS
# www.blender.org
mtllib Roca5.mtl
o Icosphere
v 0.645543 -0.402384 0.346450
v -0.143687 -0.276099 0.848094
v -0.725783 -0.138349 0.254776
v -0.368881 -0.410466 -0.719061
v 0.542073 -0.340545 -0.305145
v 0.853643 1.086941 0.310326
v 0.746890 0.762571 0.456496
v -0.470399 0.892088 -0.105798
v -0.130737 -0.377201 0.772101
v 0.604402 -0.476524 0.299399
v 0.265562 -0.450076 0.649820
v 0.712959 -0.360451 0.066808
v 0.647029 -0.444872 -0.002011
v -0.515024 -0.247329 0.599008
v -0.618966 -0.303190 -0.567222
v 0.100187 -0.320795 -0.652679
v 0.817448 -0.079986 0.178386
v 0.743308 -0.138580 -0.128759
v -0.010358 0.062374 0.925407
v -0.756949 -0.029808 0.290818
v -0.574554 0.633899 -0.125336
v 0.395942 -0.214690 -0.513228
v 0.101491 0.011464 -0.712921
v 0.906181 0.794762 0.136448
v 0.943226 1.055991 0.237760
v -0.344080 0.991500 -0.317854
v -0.389386 0.811680 -0.378320
v 0.406693 0.731283 0.661185
v 0.491707 0.985974 0.685106
v 0.227021 0.393464 0.766802
v -0.439759 0.483975 -0.483731
v -0.235629 0.336636 -0.728255
v -0.655418 -0.062350 -0.487856
v 0.885406 0.334463 0.052525
v -0.699920 0.070246 -0.143438
v -0.492502 0.289119 -0.600429
v 0.731505 0.310125 0.407009
v -0.114596 -0.000861 -0.775068
v -0.160935 -0.323310 -0.749265
v -0.608042 -0.331496 -0.639435
v -0.421640 -0.413001 -0.739600
v -0.608714 0.346835 0.279319
v -0.215823 0.446787 0.705795
v -0.022145 0.565982 -0.654204
v -0.572078 0.314723 0.496055
v 0.017885 0.333777 0.873587
v -0.736458 0.048946 0.482612
v -0.146266 0.580543 0.609498
v -0.085602 0.105168 0.952098
v 0.749438 0.750486 -0.245411
v -0.578001 -0.128343 0.677322
v -0.285858 -0.114382 0.886900
v -0.142728 0.624006 0.647522
v 0.425292 0.820018 -0.503024
v 0.696010 1.224976 0.306173
v 0.601031 1.055726 0.569044
v -0.293006 0.973317 0.111051
v -0.444956 0.747360 0.175966
v -0.035019 1.104828 -0.439449
v -0.022987 0.923393 -0.520463
v 0.432438 1.113003 0.565836
v 0.548475 1.264868 0.291945
v 0.220048 1.160030 0.208706
v 0.067643 0.906505 0.472164
v 0.863996 1.143128 0.145473
v 0.727390 1.010722 -0.151318
v 0.514037 1.216040 -0.094679
v 0.697376 1.258737 0.125218
v 0.306327 1.195903 -0.386573
v 0.386904 1.030352 -0.452484
vn 0.8337 -0.5389 0.1202
vn 0.9031 -0.3993 0.1579
vn -0.8393 -0.3725 0.3960
vn 0.5097 -0.5294 -0.6782
vn -0.9302 0.3650 -0.0381
vn 0.7470 -0.1872 -0.6379
vn -0.8967 0.4361 0.0756
vn 0.2406 0.9538 0.1798
vn -0.2350 -0.9716 -0.0270
vn 0.6330 -0.0129 -0.7741
vn -0.9889 -0.1218 -0.0845
vn 0.3163 -0.1462 -0.9373
vn -0.4079 0.1034 -0.9072
vn 0.4673 -0.1595 -0.8696
vn -0.9601 -0.2172 -0.1761
vn 0.9176 -0.0301 0.3963
vn 0.9434 -0.2823 -0.1739
vn 0.7998 -0.4547 -0.3918
vn -0.4610 -0.6070 0.6473
vn -0.4900 -0.5630 0.6655
vn 0.8505 -0.3313 -0.4085
vn 0.7705 -0.6361 0.0422
vn 0.1396 -0.5835 0.8000
vn 0.5249 -0.6443 0.5562
vn 0.2350 -0.7674 -0.5966
vn 0.9579 -0.2148 -0.1902
vn 0.0376 -0.2683 0.9626
vn -0.5615 0.7541 0.3405
vn 0.4151 0.1288 0.9006
vn -0.0066 0.7286 0.6849
vn -0.8202 -0.5154 0.2483
vn -0.5498 0.3321 0.7664
vn -0.2017 0.4399 0.8751
vn 0.6371 0.3000 -0.7100
vn 0.1090 0.3137 -0.9432
vn -0.8747 0.2315 -0.4258
vn -0.6005 0.5149 0.6118
vn 0.5507 -0.0769 0.8312
vn 0.9167 0.0974 -0.3876
vn 0.9059 -0.0962 0.4125
vn -0.4186 0.3261 -0.8476
vn -0.9466 0.2953 0.1296
vn 0.5986 -0.1355 0.7895
vn -0.3060 0.9506 0.0528
vn 0.5219 0.7969 0.3044
vn 0.2326 0.7212 0.6525
vn 0.6653 0.2960 0.6854
vn -0.4579 0.8045 0.3782
vn 0.5111 0.6667 -0.5425
vn -0.8601 0.3596 -0.3618
vn 0.5952 -0.1314 0.7928
vn -0.4713 0.2435 0.8477
vn 0.8334 -0.1642 0.5277
vn -0.4413 0.3622 -0.8210
vn 0.8626 0.1172 -0.4921
vn 0.5714 0.6276 -0.5287
vn 0.0421 0.3991 -0.9159
vn -0.4511 0.6812 0.5766
vn -0.2187 0.9703 -0.1031
vn 0.2145 0.7987 0.5622
vn 0.5904 0.7761 0.2219
vn -0.8266 0.4667 0.3144
vn -0.4203 0.5782 -0.6993
vn -0.9028 0.3582 -0.2382
vn -0.1734 -0.9085 0.3803
vn 0.2089 0.1712 -0.9628
vt 0.272728 0.157461
vt 0.318182 0.078731
vt 0.363637 0.157461
vt 0.318182 0.236191
vt 0.818182 0.157461
vt 0.909091 0.157461
vt 0.863636 0.236191
vt 0.454546 0.157461
vt 0.545455 0.157461
vt 0.500000 0.236191
vt 0.771084 0.198351
vt 0.828049 0.297830
vt 0.409092 0.236191
vt 0.247523 0.381888
vt 0.273894 0.336212
vt 0.300264 0.381888
vt 0.409092 0.078731
vt 0.227273 0.078731
vt 0.181819 0.157461
vt 0.954545 0.078731
vt 0.773801 0.223015
vt 0.727273 0.157461
vt 0.636364 0.157461
vt 0.627836 0.300150
vt 0.505225 0.374757
vt 0.423911 0.366596
vt 0.369718 0.301298
vt 0.590909 0.236191
vt 0.783238 0.200501
vt 0.717020 0.300890
vt 0.784080 0.197749
vt 0.369837 0.287754
vt 0.290191 0.284674
vt 1.000000 0.157461
vt 0.136365 0.078731
vt 0.090910 0.157461
vt 0.366970 0.298453
vt 0.136365 0.236191
vt 0.189681 0.371920
vt 0.167578 0.290254
vt 0.290191 0.284674
vt 0.763353 0.263429
vt 0.772557 0.316179
vt 0.296041 0.386143
vt 0.423353 0.390756
vt 0.582210 0.393494
vt 0.633796 0.325214
vt 0.721702 0.309205
vt 0.313950 0.330948
vt 0.332436 0.330948
vt 0.323193 0.346958
vt 0.203823 0.328780
vt 0.242779 0.328780
vt 0.223301 0.362517
vt 0.244779 0.393651
vt 0.271993 0.393652
vt 0.260338 0.389246
vt 0.398857 0.393651
vt 0.411615 0.393652
vt 0.377475 0.393651
vt 0.220582 0.382061
vt 0.181819 0.314921
vt 0.363637 0.314921
vt 0.318303 0.393443
vt 0.577534 0.393651
vt 0.594559 0.387330
vt 0.636364 0.314921
vt 0.818182 0.314921
s 0
f 1/1/1 10/2/1 12/3/1
f 1/1/2 12/3/2 17/4/2
f 3/5/3 14/6/3 20/7/3
f 5/8/4 16/9/4 22/10/4
f 35/11/5 20/7/5 42/12/5
f 5/8/6 22/10/6 18/13/6
f 42/12/7 20/7/7 47/7/7 45/12/7
f 62/14/8 55/15/8 68/16/8
f 13/17/9 10/18/9 11/19/9 9/20/9 14/6/9 3/5/9 35/21/9 15/22/9 4/23/9 16/9/9 5/8/9
f 44/24/10 54/25/10 50/26/10 34/27/10 18/13/10 22/10/10 23/28/10
f 15/22/11 35/21/11 33/21/11 40/22/11
f 23/28/12 16/9/12 39/9/12 38/28/12
f 41/23/13 40/22/13 33/29/13 36/30/13 32/24/13 38/28/13 39/9/13
f 22/10/14 16/9/14 23/28/14
f 3/5/15 20/7/15 35/31/15
f 17/4/16 34/32/16 37/33/16
f 17/4/17 12/3/17 18/13/17
f 12/3/18 5/8/18 18/13/18
f 14/6/19 2/34/19 52/34/19 51/6/19
f 9/20/20 2/34/20 14/6/20
f 12/3/21 13/17/21 5/8/21
f 12/3/22 10/2/22 13/17/22
f 9/35/23 11/19/23 2/36/23
f 10/18/24 1/1/24 11/19/24
f 16/9/25 4/23/25 41/23/25 39/9/25
f 17/4/26 18/13/26 34/37/26
f 2/36/27 19/38/27 49/38/27 52/36/27
f 48/39/28 42/12/28 45/12/28 43/39/28
f 19/38/29 30/40/29 46/40/29 49/38/29
f 30/40/30 48/39/30 43/39/30 46/40/30
f 20/7/31 14/6/31 51/6/31 47/7/31
f 52/36/32 49/38/32 46/40/32 43/39/32 45/12/32 47/7/32 51/6/32
f 48/39/33 30/40/33 28/40/33 64/39/33
f 50/26/34 54/25/34 70/25/34 66/26/34
f 54/25/35 44/24/35 60/24/35 70/25/35
f 31/30/36 35/29/36 21/29/36 27/30/36
f 42/12/37 48/39/37 64/39/37 58/12/37
f 30/40/38 37/41/38 7/41/38 28/40/38
f 34/27/39 50/26/39 66/26/39 24/27/39
f 37/33/40 34/32/40 24/32/40 7/33/40
f 44/24/41 31/30/41 27/30/41 60/24/41
f 35/11/42 42/12/42 58/12/42 21/11/42
f 2/36/43 11/19/43 1/1/43 17/4/43 37/41/43 30/40/43 19/38/43
f 8/42/44 57/43/44 63/44/44 67/45/44 69/46/44 59/47/44 26/48/44
f 6/49/45 25/50/45 65/51/45
f 29/52/46 56/53/46 61/54/46
f 7/33/47 6/49/47 55/15/47 56/53/47
f 61/55/48 62/56/48 63/44/48 64/57/48
f 65/58/49 66/59/49 67/45/49 68/60/49
f 8/42/50 26/48/50 27/30/50 21/29/50
f 56/53/51 29/52/51 28/40/51 7/41/51
f 64/61/52 28/62/52 29/52/52 61/54/52
f 25/50/53 6/49/53 7/33/53 24/32/53
f 26/48/54 59/47/54 60/24/54 27/30/54
f 24/63/55 66/64/55 65/51/55 25/50/55
f 66/59/56 70/65/56 69/46/56 67/45/56
f 70/66/57 60/67/57 59/47/57 69/46/57
f 58/68/58 64/57/58 63/44/58 57/43/58
f 62/56/59 68/60/59 67/45/59 63/44/59
f 61/54/60 56/53/60 55/15/60 62/14/60
f 68/16/61 55/15/61 6/49/61 65/51/61
f 21/11/62 58/12/62 57/43/62 8/42/62
f 31/30/63 44/24/63 32/24/63 36/30/63
f 35/29/64 31/30/64 36/30/64 33/29/64
f 4/23/65 15/22/65 40/22/65 41/23/65
f 44/24/66 23/28/66 38/28/66 32/24/66
l 48 53
