# Blender 4.2.2 LTS
# www.blender.org
mtllib Roca7.mtl
o Icosphere
v 1.239477 -0.885154 1.149322
v 0.337973 0.697070 2.429895
v -0.949248 -0.321404 1.280895
v -0.368731 -1.100787 -1.368257
v 0.337127 -1.627013 -0.353358
v 1.424956 1.690198 0.800724
v 1.008898 1.028788 1.203117
v -0.690061 1.226066 -0.312775
v 0.365952 0.233771 2.605480
v 0.783843 -1.138205 1.041240
v 0.841457 -0.303525 2.108845
v 0.980653 -1.279220 0.362181
v 0.512998 -1.508744 0.310862
v -0.522519 0.184674 2.065942
v -0.845788 -0.518039 -1.009877
v -0.077862 -1.487401 -0.921409
v 1.584728 -0.622850 0.543888
v 1.082169 -1.125932 -0.176898
v 0.593770 1.122744 1.960896
v -1.103025 0.086784 1.175411
v -0.936461 0.644185 -0.311726
v 0.183789 -1.484465 -0.771232
v -0.010299 -0.847802 -1.150408
v 1.834553 0.808675 0.624161
v 1.888328 1.399572 0.880863
v -0.527193 1.187956 -0.793033
v -0.516578 0.616013 -0.981950
v 0.119730 1.398267 1.363215
v 0.117998 1.564564 1.228290
v 0.468542 1.086065 1.667936
v -0.497022 0.162526 -0.975216
v -0.213204 -0.100458 -1.207894
v -0.304701 0.012653 -0.841447
v 1.918662 0.005067 0.223334
v -1.020495 -0.091634 0.042112
v -0.491953 0.077014 -1.098922
v 1.428097 0.381293 1.042376
v -0.051814 -0.578520 -1.062083
v 0.069844 -0.866950 -1.080764
v -0.101695 -0.205992 -1.321745
v 0.043363 -0.589581 -1.532625
v -0.897862 0.633028 0.792615
v -0.141118 1.083522 1.288445
v 0.337127 0.088632 -1.373481
v -0.599811 0.904220 1.032185
v 0.356588 1.330946 1.515806
v -0.975516 0.707663 1.257148
v -0.290513 0.978853 1.398517
v 0.462252 1.473624 1.540857
v 2.224267 0.776021 -0.755027
v -0.710126 0.906263 1.639509
v 0.022601 1.393071 1.795602
v -0.226671 0.856996 1.807345
v 1.625280 0.720470 -1.440355
v 0.880067 1.856872 -0.087125
v 0.396162 1.191925 0.943261
v -0.271524 1.369601 0.031418
v -0.699823 1.008954 0.332518
v 0.040002 1.169388 -1.232085
v 0.260565 0.572290 -1.391584
v 0.115470 1.315093 0.532597
v 0.692139 1.641338 -0.417780
v 0.439359 1.516167 -0.226801
v -0.205997 1.242575 0.680788
v 1.973594 1.665848 0.198615
v 1.972366 1.193373 -0.566844
v 1.348344 1.618720 -0.983420
v 1.491882 1.911719 -0.678205
v 0.831834 1.347906 -1.472698
v 1.279006 0.949702 -1.495685
vn 0.4086 -0.8628 0.2976
vn 0.7161 -0.6894 0.1097
vn -0.8177 -0.1656 0.5513
vn 0.2336 -0.8909 -0.3896
vn -0.9537 0.2788 -0.1133
vn 0.5700 -0.6908 -0.4448
vn -0.8475 0.4833 -0.2193
vn -0.3973 0.8556 -0.3319
vn -0.5363 -0.7672 0.3518
vn 0.5739 -0.5354 -0.6197
vn -0.5578 0.7068 -0.4350
vn -0.6311 0.1363 0.7637
vn 0.9341 0.0480 0.3538
vn 0.4708 -0.3410 -0.8136
vn -0.9347 -0.3553 -0.0121
vn 0.8165 -0.1495 0.5577
vn 0.7418 -0.6687 -0.0505
vn 0.5737 -0.8099 -0.1223
vn -0.5005 0.3978 0.7689
vn -0.5098 0.2778 0.8142
vn 0.4362 -0.8987 0.0445
vn 0.3947 -0.8701 0.2951
vn 0.8191 0.2459 0.5183
vn 0.2857 -0.7624 0.5806
vn 0.6454 -0.4875 -0.5881
vn 0.8203 -0.5369 -0.1972
vn 0.1554 0.7331 0.6621
vn 0.6517 -0.6305 -0.4218
vn 0.8392 -0.1571 -0.5207
vn 0.4361 -0.5694 -0.6968
vn -0.8393 0.0997 0.5345
vn -0.4075 0.8690 -0.2805
vn -0.5951 0.6246 0.5057
vn 0.5501 0.6231 -0.5559
vn -0.0229 -0.1159 -0.9930
vn -0.8622 -0.1036 -0.4959
vn -0.6151 0.7453 0.2572
vn 0.5767 0.5519 0.6024
vn 0.9545 0.1341 0.2665
vn 0.7248 -0.0152 0.6888
vn -0.4512 -0.0699 -0.8897
vn -0.9620 0.2707 0.0364
vn 0.8658 0.1329 0.4825
vn -0.2452 0.9476 -0.2050
vn 0.4457 0.8136 0.3733
vn 0.6733 0.6952 -0.2517
vn -0.3068 0.7868 0.5356
vn -0.2408 0.9587 0.1512
vn 0.7796 0.4547 -0.4305
vn -0.8583 0.2485 -0.4490
vn 0.5119 0.8550 -0.0832
vn -0.6378 0.7667 -0.0735
vn 0.3527 -0.0235 0.9354
vn -0.5232 0.1467 -0.8395
vn 0.9895 -0.1233 0.0750
vn 0.5919 0.4504 -0.6684
vn -0.2002 0.0451 -0.9787
vn -0.3085 0.9272 0.2125
vn -0.4937 0.6313 -0.5980
vn -0.4638 0.8664 0.1852
vn 0.1312 0.9795 0.1527
vn -0.7672 0.6114 0.1941
vn -0.2876 0.4415 -0.8499
vn -0.4309 -0.8422 -0.3241
vn -0.4863 0.1895 -0.8530
vn -0.4083 -0.1797 -0.8950
vt 0.272728 0.157461
vt 0.318182 0.078731
vt 0.363637 0.157461
vt 0.318182 0.236191
vt 0.818182 0.157461
vt 0.909091 0.157461
vt 0.863636 0.236191
vt 0.454546 0.157461
vt 0.545455 0.157461
vt 0.500000 0.236191
vt 0.771084 0.198351
vt 0.828049 0.297830
vt 0.409092 0.236191
vt 0.247523 0.381888
vt 0.273894 0.336212
vt 0.300264 0.381888
vt 0.409092 0.078731
vt 0.227273 0.078731
vt 0.181819 0.157461
vt 0.954545 0.078731
vt 0.773801 0.223015
vt 0.727273 0.157461
vt 0.636364 0.157461
vt 0.627836 0.300150
vt 0.505225 0.374757
vt 0.423911 0.366596
vt 0.369718 0.301298
vt 0.590909 0.236191
vt 0.783238 0.200501
vt 0.717020 0.300890
vt 0.784080 0.197749
vt 0.369837 0.287754
vt 0.290191 0.284674
vt 1.000000 0.157461
vt 0.136365 0.078731
vt 0.090910 0.157461
vt 0.366970 0.298453
vt 0.136365 0.236191
vt 0.189681 0.371920
vt 0.167578 0.290254
vt 0.290191 0.284674
vt 0.763353 0.263429
vt 0.772557 0.316179
vt 0.296041 0.386143
vt 0.423353 0.390756
vt 0.582210 0.393494
vt 0.633796 0.325214
vt 0.721702 0.309205
vt 0.313950 0.330948
vt 0.332436 0.330948
vt 0.323193 0.346958
vt 0.203823 0.328780
vt 0.242779 0.328780
vt 0.223301 0.362517
vt 0.244779 0.393651
vt 0.271993 0.393652
vt 0.260338 0.389246
vt 0.398857 0.393651
vt 0.411615 0.393652
vt 0.377475 0.393651
vt 0.220582 0.382061
vt 0.181819 0.314921
vt 0.363637 0.314921
vt 0.318303 0.393443
vt 0.577534 0.393651
vt 0.594559 0.387330
vt 0.636364 0.314921
vt 0.818182 0.314921
s 0
f 1/1/1 10/2/1 12/3/1
f 1/1/2 12/3/2 17/4/2
f 3/5/3 14/6/3 20/7/3
f 5/8/4 16/9/4 22/10/4
f 35/11/5 20/7/5 42/12/5
f 5/8/6 22/10/6 18/13/6
f 42/12/7 20/7/7 47/7/7 45/12/7
f 62/14/8 55/15/8 68/16/8
f 13/17/9 10/18/9 11/19/9 9/20/9 14/6/9 3/5/9 35/21/9 15/22/9 4/23/9 16/9/9 5/8/9
f 44/24/10 54/25/10 50/26/10 34/27/10 18/13/10 22/10/10 23/28/10
f 15/22/11 35/21/11 33/21/11 40/22/11
f 23/28/12 16/9/12 39/9/12 38/28/12
f 41/23/13 40/22/13 33/29/13 36/30/13 32/24/13 38/28/13 39/9/13
f 22/10/14 16/9/14 23/28/14
f 3/5/15 20/7/15 35/31/15
f 17/4/16 34/32/16 37/33/16
f 17/4/17 12/3/17 18/13/17
f 12/3/18 5/8/18 18/13/18
f 14/6/19 2/34/19 52/34/19 51/6/19
f 9/20/20 2/34/20 14/6/20
f 12/3/21 13/17/21 5/8/21
f 12/3/22 10/2/22 13/17/22
f 9/35/23 11/19/23 2/36/23
f 10/18/24 1/1/24 11/19/24
f 16/9/25 4/23/25 41/23/25 39/9/25
f 17/4/26 18/13/26 34/37/26
f 2/36/27 19/38/27 49/38/27 52/36/27
f 48/39/28 42/12/28 45/12/28 43/39/28
f 19/38/29 30/40/29 46/40/29 49/38/29
f 30/40/30 48/39/30 43/39/30 46/40/30
f 20/7/31 14/6/31 51/6/31 47/7/31
f 52/36/32 49/38/32 46/40/32 43/39/32 45/12/32 47/7/32 51/6/32
f 48/39/33 30/40/33 28/40/33 64/39/33
f 50/26/34 54/25/34 70/25/34 66/26/34
f 54/25/35 44/24/35 60/24/35 70/25/35
f 31/30/36 35/29/36 21/29/36 27/30/36
f 42/12/37 48/39/37 64/39/37 58/12/37
f 30/40/38 37/41/38 7/41/38 28/40/38
f 34/27/39 50/26/39 66/26/39 24/27/39
f 37/33/40 34/32/40 24/32/40 7/33/40
f 44/24/41 31/30/41 27/30/41 60/24/41
f 35/11/42 42/12/42 58/12/42 21/11/42
f 2/36/43 11/19/43 1/1/43 17/4/43 37/41/43 30/40/43 19/38/43
f 8/42/44 57/43/44 63/44/44 67/45/44 69/46/44 59/47/44 26/48/44
f 6/49/45 25/50/45 65/51/45
f 29/52/46 56/53/46 61/54/46
f 7/33/47 6/49/47 55/15/47 56/53/47
f 61/55/48 62/56/48 63/44/48 64/57/48
f 65/58/49 66/59/49 67/45/49 68/60/49
f 8/42/50 26/48/50 27/30/50 21/29/50
f 56/53/51 29/52/51 28/40/51 7/41/51
f 64/61/52 28/62/52 29/52/52 61/54/52
f 25/50/53 6/49/53 7/33/53 24/32/53
f 26/48/54 59/47/54 60/24/54 27/30/54
f 24/63/55 66/64/55 65/51/55 25/50/55
f 66/59/56 70/65/56 69/46/56 67/45/56
f 70/66/57 60/67/57 59/47/57 69/46/57
f 58/68/58 64/57/58 63/44/58 57/43/58
f 62/56/59 68/60/59 67/45/59 63/44/59
f 61/54/60 56/53/60 55/15/60 62/14/60
f 68/16/61 55/15/61 6/49/61 65/51/61
f 21/11/62 58/12/62 57/43/62 8/42/62
f 31/30/63 44/24/63 32/24/63 36/30/63
f 35/29/64 31/30/64 36/30/64 33/29/64
f 4/23/65 15/22/65 40/22/65 41/23/65
f 44/24/66 23/28/66 38/28/66 32/24/66
l 48 53
