# Blender 4.2.2 LTS
# www.blender.org
mtllib Roca6.mtl
o Icosphere
v 0.708143 -0.410402 0.488465
v -0.000902 -0.029568 1.259030
v -0.574441 -0.215702 0.510652
v -0.510841 -0.457435 -0.961732
v 0.326023 -0.583539 -0.335895
v 0.820393 1.227673 0.394293
v 0.540435 0.737117 0.548627
v -0.477383 0.900870 0.041819
v 0.084127 -0.143816 1.209825
v 0.623263 -0.477446 0.365194
v 0.405131 -0.327735 1.024426
v 0.689019 -0.440100 0.095909
v 0.537454 -0.531960 -0.053063
v -0.298322 -0.127946 0.976048
v -0.806560 -0.387400 -0.879391
v -0.061169 -0.593914 -0.556104
v 0.902453 -0.170977 0.316525
v 0.738372 -0.256668 -0.098587
v -0.043831 0.300562 1.153974
v -0.809310 -0.065440 0.453188
v -0.564075 0.656095 -0.151559
v 0.133213 -0.529383 -0.505918
v -0.028624 -0.134177 -0.641012
v 0.987422 0.695123 0.177750
v 1.165376 1.134009 0.513800
v -0.354734 0.916083 -0.277497
v -0.375402 0.720700 -0.369671
v 0.257485 0.860403 0.864300
v 0.378327 1.203276 0.847431
v 0.318051 0.495279 1.077080
v -0.318629 0.364744 -0.501861
v -0.276778 0.176505 -0.530787
v -0.513138 -0.297798 -0.537649
v 1.114594 0.349721 0.022021
v -0.679222 -0.058389 -0.167976
v -0.378622 0.045579 -0.526158
v 0.793478 0.244218 0.527415
v -0.295313 -0.160541 -0.458775
v -0.172560 -0.413888 -0.495340
v -0.610108 -0.323080 -0.856705
v -0.377699 -0.265754 -0.869321
v -0.544497 0.298596 0.316444
v -0.028968 0.245944 0.993214
v 0.181345 0.523274 -0.691755
v -0.361191 0.226342 0.659328
v 0.227634 0.417941 1.196165
v -0.729204 0.130556 0.639991
v -0.109517 0.495962 0.843717
v -0.091349 0.478539 1.096784
v 1.092314 0.832622 -0.344064
v -0.420782 0.145586 0.931532
v -0.193212 0.312278 1.107349
v -0.157937 0.587153 0.932387
v 0.867887 0.833579 -0.629837
v 0.819097 1.397070 0.003325
v 0.520404 1.182186 0.639648
v -0.269208 0.828679 0.247437
v -0.419385 0.580971 0.159893
v 0.054401 1.004900 -0.534380
v 0.096509 0.733394 -0.554895
v 0.529693 1.104233 0.673939
v 0.874404 1.365044 0.042070
v 0.405341 0.984597 0.192684
v 0.127540 0.670882 0.597856
v 1.114435 1.270558 0.191942
v 0.820823 0.966009 -0.274710
v 0.663574 1.154412 -0.342128
v 1.055778 1.374481 -0.254900
v 0.476778 1.181130 -0.644360
v 0.607368 0.926343 -0.651642
vn 0.5902 -0.8066 0.0323
vn 0.7797 -0.6261 0.0094
vn -0.5556 -0.6925 0.4602
vn 0.3855 -0.6581 -0.6468
vn -0.8261 0.5382 -0.1669
vn 0.6105 -0.2173 -0.7616
vn -0.5735 0.8136 0.0951
vn -0.3523 -0.9035 -0.2439
vn -0.3042 -0.9275 0.2173
vn 0.5413 -0.3285 -0.7740
vn 0.1185 0.9308 -0.3458
vn -0.5724 -0.1273 -0.8100
vn 0.2708 0.7952 -0.5425
vn 0.3051 -0.1938 -0.9324
vn -0.5146 -0.8493 -0.1174
vn 0.8475 -0.0462 0.5288
vn 0.8462 -0.4778 -0.2359
vn 0.6993 -0.6001 -0.3885
vn -0.6333 -0.0784 0.7699
vn -0.4322 -0.6083 0.6657
vn 0.7478 -0.4647 -0.4743
vn 0.5137 -0.8580 0.0064
vn 0.4996 -0.0013 0.8663
vn 0.2830 -0.9108 0.3005
vn 0.7850 0.1962 -0.5877
vn 0.8461 -0.4781 -0.2358
vn -0.2707 0.2488 0.9300
vn -0.7493 0.2935 0.5936
vn 0.0614 -0.4604 0.8856
vn -0.5442 0.5419 0.6405
vn -0.6871 -0.2668 0.6758
vn -0.1717 0.9414 -0.2902
vn -0.6332 0.6107 0.4755
vn 0.3532 0.8909 -0.2854
vn -0.1233 0.2265 -0.9662
vn -0.7579 0.1301 -0.6392
vn -0.5616 0.7508 0.3478
vn 0.7690 0.3935 0.5037
vn 0.7978 0.5240 0.2984
vn 0.7308 0.1933 0.6546
vn -0.3895 0.3141 -0.8658
vn -0.9363 0.2590 0.2370
vn 0.6985 -0.0106 0.7155
vn -0.1983 0.9661 0.1652
vn 0.1213 0.9205 0.3713
vn -0.7968 -0.3203 -0.5123
vn 0.5498 0.3818 0.7430
vn -0.6828 0.7305 -0.0052
vn 0.7413 -0.4003 -0.5388
vn -0.7994 0.4519 -0.3960
vn 0.7452 -0.1563 0.6482
vn -0.7505 0.5352 -0.3876
vn 0.2417 -0.2995 0.9230
vn -0.4577 0.1887 -0.8688
vn 0.9136 -0.1928 -0.3581
vn 0.7709 0.4379 -0.4626
vn -0.2098 -0.0172 -0.9776
vn -0.3437 0.6471 0.6806
vn -0.5735 0.8090 -0.1288
vn -0.5381 -0.6623 -0.5214
vn 0.2151 0.9329 0.2889
vn -0.8157 0.0643 0.5750
vn -0.3369 0.0694 -0.9390
vn -0.7756 0.2588 -0.5758
vn -0.1355 0.5461 -0.8267
vn -0.4216 -0.0151 -0.9067
vt 0.272728 0.157461
vt 0.318182 0.078731
vt 0.363637 0.157461
vt 0.318182 0.236191
vt 0.818182 0.157461
vt 0.909091 0.157461
vt 0.863636 0.236191
vt 0.454546 0.157461
vt 0.545455 0.157461
vt 0.500000 0.236191
vt 0.771084 0.198351
vt 0.828049 0.297830
vt 0.409092 0.236191
vt 0.247523 0.381888
vt 0.273894 0.336212
vt 0.300264 0.381888
vt 0.409092 0.078731
vt 0.227273 0.078731
vt 0.181819 0.157461
vt 0.954545 0.078731
vt 0.773801 0.223015
vt 0.727273 0.157461
vt 0.636364 0.157461
vt 0.627836 0.300150
vt 0.505225 0.374757
vt 0.423911 0.366596
vt 0.369718 0.301298
vt 0.590909 0.236191
vt 0.783238 0.200501
vt 0.717020 0.300890
vt 0.784080 0.197749
vt 0.369837 0.287754
vt 0.290191 0.284674
vt 1.000000 0.157461
vt 0.136365 0.078731
vt 0.090910 0.157461
vt 0.366970 0.298453
vt 0.136365 0.236191
vt 0.189681 0.371920
vt 0.167578 0.290254
vt 0.290191 0.284674
vt 0.763353 0.263429
vt 0.772557 0.316179
vt 0.296041 0.386143
vt 0.423353 0.390756
vt 0.582210 0.393494
vt 0.633796 0.325214
vt 0.721702 0.309205
vt 0.313950 0.330948
vt 0.332436 0.330948
vt 0.323193 0.346958
vt 0.203823 0.328780
vt 0.242779 0.328780
vt 0.223301 0.362517
vt 0.244779 0.393651
vt 0.271993 0.393652
vt 0.260338 0.389246
vt 0.398857 0.393651
vt 0.411615 0.393652
vt 0.377475 0.393651
vt 0.220582 0.382061
vt 0.181819 0.314921
vt 0.363637 0.314921
vt 0.318303 0.393443
vt 0.577534 0.393651
vt 0.594559 0.387330
vt 0.636364 0.314921
vt 0.818182 0.314921
s 0
f 1/1/1 10/2/1 12/3/1
f 1/1/2 12/3/2 17/4/2
f 3/5/3 14/6/3 20/7/3
f 5/8/4 16/9/4 22/10/4
f 35/11/5 20/7/5 42/12/5
f 5/8/6 22/10/6 18/13/6
f 42/12/7 20/7/7 47/7/7 45/12/7
f 62/14/8 55/15/8 68/16/8
f 13/17/9 10/18/9 11/19/9 9/20/9 14/6/9 3/5/9 35/21/9 15/22/9 4/23/9 16/9/9 5/8/9
f 44/24/10 54/25/10 50/26/10 34/27/10 18/13/10 22/10/10 23/28/10
f 15/22/11 35/21/11 33/21/11 40/22/11
f 23/28/12 16/9/12 39/9/12 38/28/12
f 41/23/13 40/22/13 33/29/13 36/30/13 32/24/13 38/28/13 39/9/13
f 22/10/14 16/9/14 23/28/14
f 3/5/15 20/7/15 35/31/15
f 17/4/16 34/32/16 37/33/16
f 17/4/17 12/3/17 18/13/17
f 12/3/18 5/8/18 18/13/18
f 14/6/19 2/34/19 52/34/19 51/6/19
f 9/20/20 2/34/20 14/6/20
f 12/3/21 13/17/21 5/8/21
f 12/3/22 10/2/22 13/17/22
f 9/35/23 11/19/23 2/36/23
f 10/18/24 1/1/24 11/19/24
f 16/9/25 4/23/25 41/23/25 39/9/25
f 17/4/26 18/13/26 34/37/26
f 2/36/27 19/38/27 49/38/27 52/36/27
f 48/39/28 42/12/28 45/12/28 43/39/28
f 19/38/29 30/40/29 46/40/29 49/38/29
f 30/40/30 48/39/30 43/39/30 46/40/30
f 20/7/31 14/6/31 51/6/31 47/7/31
f 52/36/32 49/38/32 46/40/32 43/39/32 45/12/32 47/7/32 51/6/32
f 48/39/33 30/40/33 28/40/33 64/39/33
f 50/26/34 54/25/34 70/25/34 66/26/34
f 54/25/35 44/24/35 60/24/35 70/25/35
f 31/30/36 35/29/36 21/29/36 27/30/36
f 42/12/37 48/39/37 64/39/37 58/12/37
f 30/40/38 37/41/38 7/41/38 28/40/38
f 34/27/39 50/26/39 66/26/39 24/27/39
f 37/33/40 34/32/40 24/32/40 7/33/40
f 44/24/41 31/30/41 27/30/41 60/24/41
f 35/11/42 42/12/42 58/12/42 21/11/42
f 2/36/43 11/19/43 1/1/43 17/4/43 37/41/43 30/40/43 19/38/43
f 8/42/44 57/43/44 63/44/44 67/45/44 69/46/44 59/47/44 26/48/44
f 6/49/45 25/50/45 65/51/45
f 29/52/46 56/53/46 61/54/46
f 7/33/47 6/49/47 55/15/47 56/53/47
f 61/55/48 62/56/48 63/44/48 64/57/48
f 65/58/49 66/59/49 67/45/49 68/60/49
f 8/42/50 26/48/50 27/30/50 21/29/50
f 56/53/51 29/52/51 28/40/51 7/41/51
f 64/61/52 28/62/52 29/52/52 61/54/52
f 25/50/53 6/49/53 7/33/53 24/32/53
f 26/48/54 59/47/54 60/24/54 27/30/54
f 24/63/55 66/64/55 65/51/55 25/50/55
f 66/59/56 70/65/56 69/46/56 67/45/56
f 70/66/57 60/67/57 59/47/57 69/46/57
f 58/68/58 64/57/58 63/44/58 57/43/58
f 62/56/59 68/60/59 67/45/59 63/44/59
f 61/54/60 56/53/60 55/15/60 62/14/60
f 68/16/61 55/15/61 6/49/61 65/51/61
f 21/11/62 58/12/62 57/43/62 8/42/62
f 31/30/63 44/24/63 32/24/63 36/30/63
f 35/29/64 31/30/64 36/30/64 33/29/64
f 4/23/65 15/22/65 40/22/65 41/23/65
f 44/24/66 23/28/66 38/28/66 32/24/66
l 48 53
