# Blender 4.2.2 LTS
# www.blender.org
mtllib Roca3.mtl
o Icosphere
v 0.680146 -0.430397 0.409485
v -0.163046 -0.436410 0.794598
v -0.843097 -0.273680 0.066433
v -0.317098 -0.511172 -0.801197
v 0.618881 -0.349792 -0.382839
v 0.892665 1.073650 0.312694
v 0.822174 0.834497 0.479409
v -0.563055 0.883090 -0.096566
v -0.192075 -0.590107 0.617576
v 0.581199 -0.605011 0.324334
v 0.238407 -0.590850 0.612362
v 0.776375 -0.392971 0.074666
v 0.659940 -0.549259 -0.013868
v -0.634575 -0.401037 0.449095
v -0.607094 -0.408450 -0.588723
v 0.136202 -0.405443 -0.771925
v 0.881063 -0.025459 0.166969
v 0.833320 -0.096955 -0.213853
v 0.030391 -0.023667 0.967803
v -0.860096 -0.081308 0.188742
v -0.640751 0.569196 -0.143091
v 0.466554 -0.184408 -0.636361
v 0.054718 -0.017693 -0.813828
v 0.959259 0.885728 0.090125
v 0.966472 1.068972 0.186727
v -0.408598 1.095148 -0.321208
v -0.447777 0.887873 -0.409794
v 0.368195 0.794964 0.787091
v 0.452514 1.002607 0.766141
v 0.226148 0.361055 0.799981
v -0.585788 0.479237 -0.542535
v -0.376793 0.297514 -0.855754
v -0.829976 -0.168709 -0.517464
v 0.896325 0.354607 -0.024652
v -0.796017 -0.042317 -0.222505
v -0.696684 0.228412 -0.683320
v 0.778863 0.342668 0.371182
v -0.172720 -0.094572 -0.937012
v -0.126342 -0.469191 -0.912305
v -0.649831 -0.422612 -0.666683
v -0.380013 -0.519707 -0.856107
v -0.704775 0.342568 0.190845
v -0.276946 0.538252 0.676877
v -0.152136 0.583122 -0.698343
v -0.753560 0.378279 0.419158
v -0.006949 0.334160 0.953747
v -0.920675 0.043690 0.451462
v -0.126825 0.619464 0.557546
v -0.070013 0.028849 1.081652
v 0.638642 0.672568 -0.278411
v -0.739622 -0.260602 0.664952
v -0.329686 -0.272667 0.968366
v -0.051376 0.641474 0.535549
v 0.260213 0.773935 -0.485870
v 0.680608 1.176656 0.406098
v 0.632697 1.043515 0.618330
v -0.418866 1.038124 0.145981
v -0.536918 0.794971 0.193607
v -0.063916 1.235166 -0.477455
v -0.063290 1.037475 -0.572363
v 0.371515 1.145902 0.638345
v 0.433414 1.287495 0.404848
v 0.103364 1.287560 0.288760
v 0.003453 1.024400 0.562589
v 0.839532 1.154240 0.096147
v 0.717242 1.076702 -0.181925
v 0.482107 1.337433 -0.077547
v 0.619004 1.281408 0.172113
v 0.284150 1.349364 -0.366021
v 0.327692 1.137791 -0.432734
vn 0.8180 -0.5483 0.1738
vn 0.9196 -0.3194 0.2286
vn -0.8738 -0.3136 0.3718
vn 0.5858 -0.4712 -0.6594
vn -0.9328 0.3424 -0.1129
vn 0.7575 -0.2356 -0.6088
vn -0.8783 0.3609 -0.3137
vn 0.3905 0.8742 0.2886
vn -0.1533 -0.9809 -0.1201
vn 0.5689 0.2126 -0.7945
vn -0.6158 -0.6871 0.3856
vn 0.4732 0.0024 -0.8810
vn -0.4913 -0.0338 -0.8703
vn 0.3897 -0.0176 -0.9208
vn -0.9882 0.0100 -0.1530
vn 0.9524 0.1059 0.2858
vn 0.9639 -0.2563 -0.0727
vn 0.8172 -0.4751 -0.3262
vn -0.3493 -0.8411 0.4130
vn -0.4961 -0.6137 0.6142
vn 0.8370 -0.4370 -0.3294
vn 0.7777 -0.6237 0.0783
vn 0.0066 -0.7556 0.6550
vn 0.5039 -0.5922 0.6288
vn 0.2159 -0.9764 0.0017
vn 0.9899 -0.0935 -0.1066
vn 0.3746 -0.5400 0.7538
vn -0.3438 0.9361 -0.0742
vn 0.6274 0.0958 0.7727
vn 0.1565 0.8233 0.5455
vn -0.8409 -0.5410 0.0090
vn -0.5530 0.3144 0.7716
vn -0.4609 0.1578 0.8733
vn 0.5216 0.0665 -0.8506
vn 0.3566 0.1343 -0.9246
vn -0.9305 0.3086 -0.1975
vn -0.6004 0.2017 0.7738
vn 0.5815 -0.1977 0.7892
vn 0.7427 0.0386 -0.6685
vn 0.9425 -0.1617 0.2926
vn -0.4333 0.3614 -0.8256
vn -0.9570 0.2897 0.0131
vn 0.5904 -0.1507 0.7929
vn -0.3740 0.9262 0.0487
vn 0.4309 0.8752 0.2200
vn 0.3306 0.7254 0.6038
vn 0.6742 0.4105 0.6139
vn -0.2861 0.7914 0.5402
vn 0.5466 0.7817 -0.3003
vn -0.9005 0.2867 -0.3270
vn 0.5882 -0.0794 0.8048
vn -0.3695 0.3656 0.8543
vn 0.9234 -0.1088 0.3681
vn -0.4955 0.3972 -0.7725
vn 0.7770 0.3581 -0.5178
vn 0.5969 0.5602 -0.5744
vn 0.1974 0.3784 -0.9043
vn -0.5500 0.6034 0.5774
vn 0.0359 0.9937 0.1065
vn 0.3396 0.7610 0.5527
vn 0.5216 0.8275 0.2076
vn -0.9275 0.3263 0.1826
vn -0.4274 0.6286 -0.6498
vn -0.9357 0.3528 0.0056
vn -0.1418 -0.9509 0.2752
vn 0.3118 0.3072 -0.8991
vt 0.272728 0.157461
vt 0.318182 0.078731
vt 0.363637 0.157461
vt 0.318182 0.236191
vt 0.818182 0.157461
vt 0.909091 0.157461
vt 0.863636 0.236191
vt 0.454546 0.157461
vt 0.545455 0.157461
vt 0.500000 0.236191
vt 0.771084 0.198351
vt 0.828049 0.297830
vt 0.409092 0.236191
vt 0.247523 0.381888
vt 0.273894 0.336212
vt 0.300264 0.381888
vt 0.409092 0.078731
vt 0.227273 0.078731
vt 0.181819 0.157461
vt 0.954545 0.078731
vt 0.773801 0.223015
vt 0.727273 0.157461
vt 0.636364 0.157461
vt 0.627836 0.300150
vt 0.505225 0.374757
vt 0.423911 0.366596
vt 0.369718 0.301298
vt 0.590909 0.236191
vt 0.783238 0.200501
vt 0.717020 0.300890
vt 0.784080 0.197749
vt 0.369837 0.287754
vt 0.290191 0.284674
vt 1.000000 0.157461
vt 0.136365 0.078731
vt 0.090910 0.157461
vt 0.366970 0.298453
vt 0.136365 0.236191
vt 0.189681 0.371920
vt 0.167578 0.290254
vt 0.290191 0.284674
vt 0.763353 0.263429
vt 0.772557 0.316179
vt 0.296041 0.386143
vt 0.423353 0.390756
vt 0.582210 0.393494
vt 0.633796 0.325214
vt 0.721702 0.309205
vt 0.313950 0.330948
vt 0.332436 0.330948
vt 0.323193 0.346958
vt 0.203823 0.328780
vt 0.242779 0.328780
vt 0.223301 0.362517
vt 0.244779 0.393651
vt 0.271993 0.393652
vt 0.260338 0.389246
vt 0.398857 0.393651
vt 0.411615 0.393652
vt 0.377475 0.393651
vt 0.220582 0.382061
vt 0.181819 0.314921
vt 0.363637 0.314921
vt 0.318303 0.393443
vt 0.577534 0.393651
vt 0.594559 0.387330
vt 0.636364 0.314921
vt 0.818182 0.314921
s 0
f 1/1/1 10/2/1 12/3/1
f 1/1/2 12/3/2 17/4/2
f 3/5/3 14/6/3 20/7/3
f 5/8/4 16/9/4 22/10/4
f 35/11/5 20/7/5 42/12/5
f 5/8/6 22/10/6 18/13/6
f 42/12/7 20/7/7 47/7/7 45/12/7
f 62/14/8 55/15/8 68/16/8
f 13/17/9 10/18/9 11/19/9 9/20/9 14/6/9 3/5/9 35/21/9 15/22/9 4/23/9 16/9/9 5/8/9
f 44/24/10 54/25/10 50/26/10 34/27/10 18/13/10 22/10/10 23/28/10
f 15/22/11 35/21/11 33/21/11 40/22/11
f 23/28/12 16/9/12 39/9/12 38/28/12
f 41/23/13 40/22/13 33/29/13 36/30/13 32/24/13 38/28/13 39/9/13
f 22/10/14 16/9/14 23/28/14
f 3/5/15 20/7/15 35/31/15
f 17/4/16 34/32/16 37/33/16
f 17/4/17 12/3/17 18/13/17
f 12/3/18 5/8/18 18/13/18
f 14/6/19 2/34/19 52/34/19 51/6/19
f 9/20/20 2/34/20 14/6/20
f 12/3/21 13/17/21 5/8/21
f 12/3/22 10/2/22 13/17/22
f 9/35/23 11/19/23 2/36/23
f 10/18/24 1/1/24 11/19/24
f 16/9/25 4/23/25 41/23/25 39/9/25
f 17/4/26 18/13/26 34/37/26
f 2/36/27 19/38/27 49/38/27 52/36/27
f 48/39/28 42/12/28 45/12/28 43/39/28
f 19/38/29 30/40/29 46/40/29 49/38/29
f 30/40/30 48/39/30 43/39/30 46/40/30
f 20/7/31 14/6/31 51/6/31 47/7/31
f 52/36/32 49/38/32 46/40/32 43/39/32 45/12/32 47/7/32 51/6/32
f 48/39/33 30/40/33 28/40/33 64/39/33
f 50/26/34 54/25/34 70/25/34 66/26/34
f 54/25/35 44/24/35 60/24/35 70/25/35
f 31/30/36 35/29/36 21/29/36 27/30/36
f 42/12/37 48/39/37 64/39/37 58/12/37
f 30/40/38 37/41/38 7/41/38 28/40/38
f 34/27/39 50/26/39 66/26/39 24/27/39
f 37/33/40 34/32/40 24/32/40 7/33/40
f 44/24/41 31/30/41 27/30/41 60/24/41
f 35/11/42 42/12/42 58/12/42 21/11/42
f 2/36/43 11/19/43 1/1/43 17/4/43 37/41/43 30/40/43 19/38/43
f 8/42/44 57/43/44 63/44/44 67/45/44 69/46/44 59/47/44 26/48/44
f 6/49/45 25/50/45 65/51/45
f 29/52/46 56/53/46 61/54/46
f 7/33/47 6/49/47 55/15/47 56/53/47
f 61/55/48 62/56/48 63/44/48 64/57/48
f 65/58/49 66/59/49 67/45/49 68/60/49
f 8/42/50 26/48/50 27/30/50 21/29/50
f 56/53/51 29/52/51 28/40/51 7/41/51
f 64/61/52 28/62/52 29/52/52 61/54/52
f 25/50/53 6/49/53 7/33/53 24/32/53
f 26/48/54 59/47/54 60/24/54 27/30/54
f 24/63/55 66/64/55 65/51/55 25/50/55
f 66/59/56 70/65/56 69/46/56 67/45/56
f 70/66/57 60/67/57 59/47/57 69/46/57
f 58/68/58 64/57/58 63/44/58 57/43/58
f 62/56/59 68/60/59 67/45/59 63/44/59
f 61/54/60 56/53/60 55/15/60 62/14/60
f 68/16/61 55/15/61 6/49/61 65/51/61
f 21/11/62 58/12/62 57/43/62 8/42/62
f 31/30/63 44/24/63 32/24/63 36/30/63
f 35/29/64 31/30/64 36/30/64 33/29/64
f 4/23/65 15/22/65 40/22/65 41/23/65
f 44/24/66 23/28/66 38/28/66 32/24/66
l 48 53
